<svg width="22" height="22" viewBox="0 0 22 22" fill="none" xmlns="http://www.w3.org/2000/svg">
<path d="M18.1332 10.505V7.97359L13.3317 3.1949H6.18964C5.45673 3.1949 4.86258 3.78905 4.86258 4.52197V8.50251M18.0865 7.9514L13.3297 3.19458V6.62434C13.3297 7.35725 13.9239 7.9514 14.6568 7.9514H18.0865ZM6.77577 8.50251H4.82802C4.09511 8.50251 3.50096 9.09664 3.50096 9.8296V16.4649C3.50096 17.9308 4.68925 19.119 6.15508 19.119H16.7716C18.2374 19.119 19.4257 17.9308 19.4257 16.4649V11.832C19.4257 11.0991 18.8315 10.505 18.0987 10.505H9.8978C9.54966 10.505 9.21536 10.3681 8.96714 10.1239L7.70648 8.88363C7.45826 8.63938 7.12399 8.50251 6.77577 8.50251Z" stroke="#FAFAFA" stroke-width="1.27398" stroke-miterlimit="10" stroke-linecap="round" stroke-linejoin="round"/>
</svg>
