<svg width="52" height="46" viewBox="0 0 52 46" fill="none" xmlns="http://www.w3.org/2000/svg">
<path d="M25.8687 0.605388C30.6661 0.672018 34.9637 1.87136 38.7616 4.2034C42.5595 6.53545 45.5578 9.63374 47.7566 13.4983C50.022 17.3628 51.2547 21.5938 51.4546 26.1913V37.3851C51.4546 37.4517 51.4546 37.485 51.4546 37.485C51.4546 37.5517 51.4213 37.585 51.3546 37.585C51.2214 39.8504 50.3885 41.6827 48.856 43.0819C47.3235 44.5478 45.4579 45.314 43.2591 45.3807C41.9265 45.3807 40.8271 44.9476 39.9609 44.0814C39.0947 43.2152 38.6616 42.1158 38.6616 40.7832V27.5905C38.6616 26.2579 39.0947 25.1585 39.9609 24.2923C40.8271 23.4261 41.9265 22.993 43.2591 22.993C44.3918 22.993 45.4579 23.2262 46.4573 23.6926C45.7244 18.4289 43.459 14.0979 39.6611 10.6998C35.8632 7.30169 31.2657 5.536 25.8687 5.40274C20.4717 5.536 15.8742 7.30169 12.0763 10.6998C8.27842 14.0979 6.01301 18.4289 5.28008 23.6926C6.27953 23.2262 7.3456 22.993 8.47831 22.993C9.81091 22.993 10.9103 23.4261 11.7765 24.2923C12.6427 25.1585 13.0758 26.2579 13.0758 27.5905V40.7832C13.0758 42.1158 12.6427 43.2152 11.7765 44.0814C10.9103 44.9476 9.81091 45.3807 8.47831 45.3807C6.27953 45.314 4.41389 44.5478 2.8814 43.0819C1.34892 41.6827 0.482727 39.8504 0.282837 37.585C0.282837 37.585 0.282837 37.5517 0.282837 37.485C0.282837 37.485 0.282837 37.4517 0.282837 37.3851V26.1913C0.482727 21.5938 1.71538 17.3628 3.9808 13.4983C6.17958 9.63374 9.17793 6.53545 12.9758 4.2034C16.7737 1.87136 21.0714 0.672018 25.8687 0.605388ZM8.27842 27.7904C7.3456 27.857 6.57936 28.2235 5.97969 28.8898C5.38002 29.4894 5.08019 30.2557 5.08019 31.1885V37.1852C5.08019 38.118 5.38002 38.8843 5.97969 39.4839C6.57936 40.1502 7.3456 40.5167 8.27842 40.5833V27.7904ZM43.459 40.5833C44.3918 40.5167 45.1581 40.1502 45.7577 39.4839C46.3574 38.8843 46.6572 38.118 46.6572 37.1852V31.1885C46.6572 30.2557 46.3574 29.4894 45.7577 28.8898C45.1581 28.2235 44.3918 27.857 43.459 27.7904V40.5833Z" fill="#2029C8"/>
</svg>
