<svg width="39" height="52" viewBox="0 0 39 52" fill="none" xmlns="http://www.w3.org/2000/svg">
<path d="M27.4678 19.9896C27.4012 22.255 26.635 24.154 25.1691 25.6865C23.6366 27.1523 21.7377 27.9186 19.4722 27.9852C17.2068 27.9186 15.3079 27.1523 13.7754 25.6865C12.3095 24.154 11.5433 22.255 11.4767 19.9896C11.5433 17.7242 12.3095 15.8252 13.7754 14.2928C15.3079 12.8269 17.2068 12.0607 19.4722 11.994C21.7377 12.0607 23.6366 12.8269 25.1691 14.2928C26.635 15.8252 27.4012 17.7242 27.4678 19.9896ZM19.4722 16.7914C18.5394 16.7914 17.7732 17.0912 17.1735 17.6909C16.5738 18.2905 16.274 19.0568 16.274 19.9896C16.274 20.9224 16.5738 21.6887 17.1735 22.2883C17.7732 22.888 18.5394 23.1878 19.4722 23.1878C20.4051 23.1878 21.1713 22.888 21.771 22.2883C22.3706 21.6887 22.6705 20.9224 22.6705 19.9896C22.6705 19.0568 22.3706 18.2905 21.771 17.6909C21.1713 17.0912 20.4051 16.7914 19.4722 16.7914ZM38.6616 19.9896C38.5284 22.988 37.4623 26.4527 35.4634 30.3839C33.3979 34.315 31.0658 38.1129 28.4673 41.7776C25.8687 45.5089 23.6699 48.4739 21.8709 50.6727C21.2046 51.4722 20.4051 51.872 19.4722 51.872C18.5394 51.872 17.7399 51.4722 17.0736 50.6727C15.2746 48.4739 13.0425 45.5089 10.3773 41.7776C7.7787 38.1129 5.47997 34.315 3.48107 30.3839C1.48217 26.4527 0.416097 22.988 0.282837 19.9896C0.416097 14.526 2.28173 9.99513 5.87975 6.39711C9.47776 2.7991 14.0086 0.933465 19.4722 0.800205C24.9359 0.933465 29.4667 2.7991 33.0647 6.39711C36.6628 9.99513 38.5284 14.526 38.6616 19.9896ZM19.4722 5.59756C15.4078 5.73082 12.0097 7.13004 9.27787 9.79524C6.61268 12.5271 5.21345 15.9252 5.08019 19.9896C5.08019 21.2556 5.57991 23.1545 6.57936 25.6865C7.71207 28.2184 9.14461 30.8836 10.877 33.6821C12.2762 36.0141 13.7421 38.2129 15.2746 40.2784C16.807 42.4106 18.2063 44.3095 19.4722 45.9753C20.7382 44.3095 22.1374 42.4439 23.6699 40.3784C25.2024 38.2462 26.6683 36.0141 28.0675 33.6821C29.7999 30.8836 31.2324 28.2184 32.3651 25.6865C33.3646 23.1545 33.8643 21.2556 33.8643 19.9896C33.731 15.9252 32.3318 12.5271 29.6666 9.79524C26.9348 7.13004 23.5367 5.73082 19.4722 5.59756Z" fill="#2029C8"/>
</svg>
