<svg width="52" height="39" viewBox="0 0 52 39" fill="none" xmlns="http://www.w3.org/2000/svg">
<path d="M0.282837 7.01311C0.349467 5.21411 0.982451 3.71493 2.18179 2.5156C3.38113 1.31626 4.8803 0.683274 6.67931 0.616644H45.0581C46.8571 0.683274 48.3563 1.31626 49.5556 2.5156C50.755 3.71493 51.388 5.21411 51.4546 7.01311V32.599C51.388 34.398 50.755 35.8972 49.5556 37.0965C48.3563 38.2958 46.8571 38.9288 45.0581 38.9955H6.67931C4.8803 38.9288 3.38113 38.2958 2.18179 37.0965C0.982451 35.8972 0.349467 34.398 0.282837 32.599V7.01311ZM5.08019 7.01311V9.2119L22.3706 23.4041C23.4367 24.2036 24.6027 24.6034 25.8687 24.6034C27.1347 24.6034 28.334 24.2036 29.4667 23.4041L46.6572 9.2119V6.91317C46.5906 5.98035 46.0576 5.44731 45.0581 5.31405H6.67931C5.67986 5.44731 5.14682 5.98035 5.08019 6.91317V7.01311ZM5.08019 15.4085V32.599C5.14682 33.5984 5.67986 34.1315 6.67931 34.1981H45.0581C46.0576 34.1315 46.5906 33.5984 46.6572 32.599V15.4085L32.4651 27.102C30.4662 28.6345 28.2674 29.4008 25.8687 29.4008C23.47 29.4008 21.2379 28.6345 19.1724 27.102L5.08019 15.4085Z" fill="#2029C8"/>
</svg>
